<svg xmlns="http://www.w3.org/2000/svg" viewBox="0 0 128 128" role="img" aria-labelledby="title desc">
  <title id="title">Marca Diesel Dandy</title>
  <desc id="desc">Marca compacta con piston y engranaje en colores negro, naranja, blanco y gris metalico.</desc>
  <defs>
    <linearGradient id="orange" x1="0" x2="1" y1="0" y2="1">
      <stop offset="0" stop-color="#ff9a18"/>
      <stop offset="0.5" stop-color="#ff6a00"/>
      <stop offset="1" stop-color="#c2410c"/>
    </linearGradient>
    <linearGradient id="metal" x1="0" x2="1" y1="0" y2="1">
      <stop offset="0" stop-color="#ffffff"/>
      <stop offset="0.35" stop-color="#c9ced6"/>
      <stop offset="0.78" stop-color="#5f6671"/>
      <stop offset="1" stop-color="#f4f5f7"/>
    </linearGradient>
  </defs>
  <rect width="128" height="128" rx="26" fill="#050608"/>
  <path d="M91 0H111L62 128H42Z" fill="url(#orange)" opacity="0.95"/>
  <circle cx="56" cy="58" r="41" fill="#111827" stroke="url(#metal)" stroke-width="8"/>
  <circle cx="56" cy="58" r="30" fill="#050608" stroke="url(#orange)" stroke-width="7"/>
  <g fill="url(#metal)">
    <rect x="51" y="8" width="10" height="16" rx="2"/>
    <rect x="51" y="92" width="10" height="16" rx="2"/>
    <rect x="6" y="53" width="16" height="10" rx="2"/>
    <rect x="90" y="53" width="16" height="10" rx="2"/>
    <rect x="80" y="22" width="10" height="16" rx="2" transform="rotate(45 85 30)"/>
    <rect x="22" y="80" width="10" height="16" rx="2" transform="rotate(45 27 88)"/>
    <rect x="22" y="22" width="10" height="16" rx="2" transform="rotate(-45 27 30)"/>
    <rect x="80" y="80" width="10" height="16" rx="2" transform="rotate(-45 85 88)"/>
  </g>
  <g transform="translate(38 31) rotate(-28 24 34)">
    <rect x="14" y="0" width="32" height="27" rx="5" fill="url(#metal)" stroke="#050608" stroke-width="3"/>
    <rect x="19" y="6" width="22" height="4" fill="#ffffff" opacity="0.75"/>
    <rect x="20" y="14" width="20" height="4" fill="#111827" opacity="0.8"/>
    <rect x="26" y="25" width="8" height="45" rx="4" fill="url(#metal)" stroke="#050608" stroke-width="3"/>
    <circle cx="30" cy="76" r="12" fill="#050608" stroke="url(#metal)" stroke-width="7"/>
  </g>
  <text x="95" y="113" fill="#ffffff" font-family="Arial Black, Impact, sans-serif" font-size="26" font-weight="900">D</text>
</svg>
